<svg xmlns="http://www.w3.org/2000/svg" viewBox="-280 -360 2330 2390" role="img" aria-label="Гардеробная 1740 на 1500 мм, основной ряд 600, полки 350, проход 1140, дверь 850"><style>text{font-family:Arial,sans-serif;fill:#343c32;font-size:52px}.small{font-size:40px}</style><rect x="0" y="0" width="1740" height="1500" fill="#eee5d6"/><path d="M0 -120H-120V1620H1740V1500H0M850 0H1740V-120H850Z" fill="#68735e"/><rect x="1140" y="0" width="600" height="1500" fill="#ad8963"/><path d="M1140 750H1740" stroke="#f5eee1" stroke-width="20"/><rect x="0" y="1150" width="500" height="350" fill="#c1ad8f"/><path d="M30 120V900" stroke="#95aba9" stroke-width="22"/><path d="M850 -65H1700" stroke="#b49261" stroke-width="25"/><path d="M410 -280V400Q410 580 690 650" fill="none" stroke="#7c866b" stroke-width="20" stroke-dasharray="32 20"/><text x="270" y="-190">вход из холла</text><text x="570" y="780" text-anchor="middle">проход 1140</text><text x="250" y="1360" text-anchor="middle" class="small">полки · 350</text><text x="820" y="1420" text-anchor="middle" class="small">подход 640</text><text transform="translate(1490 375) rotate(-90)" text-anchor="middle">длинное · 750</text><text transform="translate(1490 1125) rotate(-90)" text-anchor="middle">два яруса · 750</text><path d="M0 1770H1740M0 1720V1820M1740 1720V1820M1900 0V1500M1850 0H1950M1850 1500H1950" stroke="#626e59" stroke-width="9"/><text x="870" y="1730" text-anchor="middle">1740 мм</text><text transform="translate(1980 750) rotate(-90)" text-anchor="middle">1500 мм</text><text x="870" y="1920" text-anchor="middle" class="small">Размеры по модели · до чистового обмера</text></svg>