<svg xmlns="http://www.w3.org/2000/svg" width="1440" height="1560" viewBox="-800 -800 9600 10400"><style>text{font-family:Arial,sans-serif;fill:#454a3c}</style><rect x="-800" y="-800" width="9600" height="10400" fill="#faf7f0"/><text x="-300" y="-350" font-size="220" >ЛИЗА / ВАША ПЛАНИРОВКА</text><text x="4600" y="-350" font-size="100" >K · ПРОЕКТНЫЕ РАЗМЕРЫ</text><path d="M0 0L6400 0L6400 7440L3425 7440L3425 6850L3175 6850L3175 8300L0 8300Z" fill="#ede2d1"/><polygon points="0,4760 3175,4760 3175,8300 0,8300" fill="#eee2d1"/><polygon points="3295,4660 3547,3640 4540,3640 4540,4740 6400,4740 6400,7440 3425,7440 3425,6850 3295,6850" fill="#e7e8d9"/><polygon points="2440,0 4720,0 4720,1920 2440,1920" fill="#dfe1d8"/><polygon points="4660,3120 6400,3120 6400,4620 4660,4620" fill="#eee2d1"/><rect x="-200" y="-200" width="6800" height="200" fill="#555c50" stroke="#7b766b" stroke-width="9" /><rect x="-200" y="0" width="200" height="8550" fill="#555c50" stroke="#7b766b" stroke-width="9" /><rect x="6400" y="-200" width="200" height="300" fill="#555c50" stroke="#7b766b" stroke-width="9" /><rect x="6400" y="1100" width="200" height="6540" fill="#555c50" stroke="#7b766b" stroke-width="9" /><rect x="0" y="8300" width="260" height="250" fill="#555c50" stroke="#7b766b" stroke-width="9" /><rect x="260" y="8300" width="2915" height="250" fill="#555c50" stroke="#7b766b" stroke-width="9" /><rect x="3175" y="6850" width="250" height="1700" fill="#555c50" stroke="#7b766b" stroke-width="9" /><rect x="3425" y="7440" width="520" height="250" fill="#555c50" stroke="#7b766b" stroke-width="9" /><rect x="5628" y="7440" width="772" height="250" fill="#555c50" stroke="#7b766b" stroke-width="9" /><rect x="3945" y="7440" width="1683" height="250" fill="#555c50" stroke="#7b766b" stroke-width="9" /><rect x="2320" y="0" width="120" height="1920" fill="#8c9681" stroke="#7b766b" stroke-width="9" /><rect x="4720" y="0" width="120" height="1920" fill="#8c9681" stroke="#7b766b" stroke-width="9" /><rect x="2320" y="1920" width="770" height="120" fill="#8c9681" stroke="#7b766b" stroke-width="9" /><rect x="3940" y="1920" width="900" height="120" fill="#8c9681" stroke="#7b766b" stroke-width="9" /><rect x="0" y="4640" width="2325" height="120" fill="#8c9681" stroke="#7b766b" stroke-width="9" /><rect x="3175" y="4640" width="120" height="2210" fill="#8c9681" stroke="#7b766b" stroke-width="9" /><rect x="4350" y="3520" width="190" height="120" fill="#8c9681" stroke="#7b766b" stroke-width="9" /><rect x="2821.18850460566" y="4050" width="1092.62299078868" height="120" fill="#8c9681" stroke="#7b766b" stroke-width="9" transform="rotate(-75.96375653207353 3367.5 4110)" /><rect x="4540" y="3000" width="120" height="1740" fill="#8c9681" stroke="#7b766b" stroke-width="9" /><rect x="4660" y="4620" width="1740" height="120" fill="#8c9681" stroke="#7b766b" stroke-width="9" /><rect x="5510" y="3000" width="890" height="120" fill="#8c9681" stroke="#7b766b" stroke-width="9" /><path d="M260 8400h2915m-2915 35h2915" fill="none" stroke="#7298a0" stroke-width="20"/><path d="M3945 7540h1683m-1683 35h1683" fill="none" stroke="#7298a0" stroke-width="20"/><rect x="1275" y="5800" width="1700" height="2100" fill="#faf5ec" stroke="#7b766b" stroke-width="9" transform="rotate(90 2125 6850)" /><g transform="rotate(90 2125 6850)"><rect x="1335" y="5920" width="1580" height="330" rx="50" fill="#d3c3ad"/><path d="M1345 6750h1560" stroke="#b6a991" stroke-width="20"/></g><circle cx="2125" cy="6850" r="77" fill="#faf9f1" stroke="#a2aa95" stroke-width="8"/><text x="2125" y="6879" font-size="82" text-anchor="middle">1</text><rect x="0" y="4760" width="1800" height="600" fill="#b9bba4" stroke="#7b766b" stroke-width="9" /><circle cx="900" cy="5060" r="77" fill="#faf9f1" stroke="#a2aa95" stroke-width="8"/><text x="900" y="5089" font-size="82" text-anchor="middle">2</text><rect x="0" y="6810" width="420" height="900" fill="#b9bba4" stroke="#7b766b" stroke-width="9" /><circle cx="210" cy="7260" r="77" fill="#faf9f1" stroke="#a2aa95" stroke-width="8"/><text x="210" y="7289" font-size="82" text-anchor="middle">3</text><rect x="2725" y="5650" width="450" height="330" fill="#b9bba4" stroke="#7b766b" stroke-width="9" /><circle cx="2950" cy="5815" r="77" fill="#faf9f1" stroke="#a2aa95" stroke-width="8"/><text x="2950" y="5844" font-size="82" text-anchor="middle">4</text><rect x="2725" y="7800" width="450" height="350" fill="#b9bba4" stroke="#7b766b" stroke-width="9" /><circle cx="2950" cy="7975" r="77" fill="#faf9f1" stroke="#a2aa95" stroke-width="8"/><text x="2950" y="8004" font-size="82" text-anchor="middle">5</text><rect x="4850" y="4200" width="1000" height="2100" fill="#faf5ec" stroke="#7b766b" stroke-width="9" transform="rotate(90 5350 5250)" /><g transform="rotate(90 5350 5250)"><rect x="4910" y="4320" width="880" height="330" rx="50" fill="#d3c3ad"/><path d="M4920 5150h860" stroke="#b6a991" stroke-width="20"/></g><circle cx="5350" cy="5250" r="77" fill="#faf9f1" stroke="#a2aa95" stroke-width="8"/><text x="5350" y="5279" font-size="82" text-anchor="middle">6</text><rect x="3425" y="6300" width="600" height="1000" fill="#b9bba4" stroke="#7b766b" stroke-width="9" /><circle cx="3725" cy="6800" r="77" fill="#faf9f1" stroke="#a2aa95" stroke-width="8"/><text x="3725" y="6829" font-size="82" text-anchor="middle">7</text><rect x="4150" y="6575" width="500" height="500" fill="#faf5ec" stroke="#7b766b" stroke-width="9" rx="45"/><circle cx="4400" cy="6825" r="77" fill="#faf9f1" stroke="#a2aa95" stroke-width="8"/><text x="4400" y="6854" font-size="82" text-anchor="middle">8</text><rect x="5500" y="6540" width="1200" height="600" fill="#b9bba4" stroke="#7b766b" stroke-width="9" transform="rotate(90 6100 6840)" /><circle cx="6100" cy="6840" r="77" fill="#faf9f1" stroke="#a2aa95" stroke-width="8"/><text x="6100" y="6869" font-size="82" text-anchor="middle">9</text><rect x="3970" y="110" width="750" height="1700" fill="#fff" stroke="#7b766b" stroke-width="9" /><rect x="4050" y="200" width="590" height="1520" rx="180" fill="#dfe6e2"/><circle cx="4345" cy="960" r="77" fill="#faf9f1" stroke="#a2aa95" stroke-width="8"/><text x="4345" y="989" font-size="82" text-anchor="middle">10</text><rect x="2460" y="1170" width="600" height="500" fill="#fff" stroke="#7b766b" stroke-width="9" /><circle cx="2760" cy="1420" r="77" fill="#faf9f1" stroke="#a2aa95" stroke-width="8"/><text x="2760" y="1449" font-size="82" text-anchor="middle">11</text><rect x="3100" y="0" width="650" height="650" fill="#fff" stroke="#7b766b" stroke-width="9" /><circle cx="3425" cy="325" r="77" fill="#faf9f1" stroke="#a2aa95" stroke-width="8"/><text x="3425" y="354" font-size="82" text-anchor="middle">12</text><rect x="2460" y="0" width="600" height="400" fill="#fff" stroke="#7b766b" stroke-width="9" /><circle cx="2760" cy="200" r="77" fill="#faf9f1" stroke="#a2aa95" stroke-width="8"/><text x="2760" y="229" font-size="82" text-anchor="middle">13</text><rect x="1670" y="0" width="650" height="650" fill="#b9bba4" stroke="#7b766b" stroke-width="9" /><circle cx="1995" cy="325" r="77" fill="#faf9f1" stroke="#a2aa95" stroke-width="8"/><text x="1995" y="354" font-size="82" text-anchor="middle">14</text><rect x="0" y="0" width="600" height="600" fill="#b9bba4" stroke="#7b766b" stroke-width="9" /><circle cx="300" cy="300" r="77" fill="#faf9f1" stroke="#a2aa95" stroke-width="8"/><text x="300" y="329" font-size="82" text-anchor="middle">15</text><rect x="600" y="0" width="600" height="600" fill="#b9bba4" stroke="#7b766b" stroke-width="9" /><circle cx="770" cy="170" r="85" fill="#6a7164"/><circle cx="1030" cy="430" r="85" fill="#6a7164"/><circle cx="900" cy="300" r="77" fill="#faf9f1" stroke="#a2aa95" stroke-width="8"/><text x="900" y="329" font-size="82" text-anchor="middle">16</text><rect x="1200" y="0" width="470" height="600" fill="#b9bba4" stroke="#7b766b" stroke-width="9" /><circle cx="1435" cy="300" r="77" fill="#faf9f1" stroke="#a2aa95" stroke-width="8"/><text x="1435" y="329" font-size="82" text-anchor="middle">17</text><rect x="0" y="600" width="600" height="600" fill="#b9bba4" stroke="#7b766b" stroke-width="9" /><circle cx="300" cy="900" r="77" fill="#faf9f1" stroke="#a2aa95" stroke-width="8"/><text x="300" y="929" font-size="82" text-anchor="middle">18</text><rect x="0" y="1200" width="600" height="600" fill="#b9bba4" stroke="#7b766b" stroke-width="9" /><circle cx="300" cy="1500" r="77" fill="#faf9f1" stroke="#a2aa95" stroke-width="8"/><text x="300" y="1529" font-size="82" text-anchor="middle">19</text><rect x="0" y="1950" width="1100" height="650" fill="#b9bba4" stroke="#7b766b" stroke-width="9" rx="45"/><circle cx="550" cy="2275" r="77" fill="#faf9f1" stroke="#a2aa95" stroke-width="8"/><text x="550" y="2304" font-size="82" text-anchor="middle">20</text><rect x="1150" y="1950" width="400" height="400" fill="#faf5ec" stroke="#7b766b" stroke-width="9" rx="45"/><circle cx="1350" cy="2150" r="77" fill="#faf9f1" stroke="#a2aa95" stroke-width="8"/><text x="1350" y="2179" font-size="82" text-anchor="middle">21</text><rect x="1150" y="2380" width="400" height="400" fill="#faf5ec" stroke="#7b766b" stroke-width="9" rx="45"/><circle cx="1350" cy="2580" r="77" fill="#faf9f1" stroke="#a2aa95" stroke-width="8"/><text x="1350" y="2609" font-size="82" text-anchor="middle">22</text><rect x="1250" y="3404" width="1500" height="800" fill="#faf5ec" stroke="#7b766b" stroke-width="9" transform="rotate(270 2000 3804)" rx="45"/><g transform="rotate(270 2000 3804)"><rect x="1330" y="4034" width="1340" height="120" rx="40" fill="#c9b69d"/></g><circle cx="2000" cy="3804" r="77" fill="#faf9f1" stroke="#a2aa95" stroke-width="8"/><text x="2000" y="3833" font-size="82" text-anchor="middle">23</text><rect x="0" y="3200" width="250" height="950" fill="#b9bba4" stroke="#7b766b" stroke-width="9" /><circle cx="125" cy="3675" r="77" fill="#faf9f1" stroke="#a2aa95" stroke-width="8"/><text x="125" y="3704" font-size="82" text-anchor="middle">24</text><rect x="35" y="3250" width="45" height="900" fill="#b9bba4" stroke="#7b766b" stroke-width="9" /><circle cx="57.5" cy="3700" r="77" fill="#faf9f1" stroke="#a2aa95" stroke-width="8"/><text x="57.5" y="3729" font-size="82" text-anchor="middle">25</text><rect x="5800" y="1300" width="600" height="1600" fill="#b9bba4" stroke="#7b766b" stroke-width="9" /><circle cx="6100" cy="2100" r="77" fill="#faf9f1" stroke="#a2aa95" stroke-width="8"/><text x="6100" y="2129" font-size="82" text-anchor="middle">26</text><rect x="5800" y="3120" width="600" height="1500" fill="#b9bba4" stroke="#7b766b" stroke-width="9" /><circle cx="6100" cy="3870" r="77" fill="#faf9f1" stroke="#a2aa95" stroke-width="8"/><text x="6100" y="3899" font-size="82" text-anchor="middle">27</text><rect x="4660" y="3850" width="300" height="770" fill="#b9bba4" stroke="#7b766b" stroke-width="9" /><circle cx="4810" cy="4235" r="77" fill="#faf9f1" stroke="#a2aa95" stroke-width="8"/><text x="4810" y="4264" font-size="82" text-anchor="middle">28</text><rect x="6400" y="100" width="1000" height="45" fill="#bea27b" stroke="#7b766b" stroke-width="9" /><rect x="3135" y="4760" width="40" height="850" fill="#bea27b" stroke="#7b766b" stroke-width="9" /><path d="M2325 4760A850 850 0 0 0 3175 5610" stroke="#a38d66" stroke-dasharray="30 25" stroke-width="10" fill="none"/><rect x="3500" y="3600" width="35" height="850" fill="#bea27b" stroke="#7b766b" stroke-width="9" /><path d="M4350 3640A850 850 0 0 1 3500 4490" stroke="#a38d66" stroke-dasharray="30 25" stroke-width="10" fill="none"/><rect x="3940" y="1960" width="850" height="35" fill="#bea27b" stroke="#7b766b" stroke-width="9" /><rect x="5510" y="3040" width="850" height="35" fill="#bea27b" stroke="#7b766b" stroke-width="9" /><g><text x="1700" y="5600" font-size="100" text-anchor="middle" fill="#343d31">Спальня · 11.24 м²*</text></g><g><text x="5200" y="6150" font-size="100" text-anchor="middle" fill="#343d31">Вторая комната · 9.55 м²*</text></g><g><text x="3540" y="1650" font-size="100" text-anchor="middle" fill="#343d31">Ванная · 4.38 м²*</text></g><g><text x="1120" y="3650" font-size="100" text-anchor="middle" fill="#343d31">Кухня-гостиная</text></g><g><text x="5300" y="2600" font-size="100" text-anchor="middle" fill="#343d31">Прихожая</text></g><g><text x="5320" y="4070" font-size="100" text-anchor="middle" fill="#343d31">Гардеробная · 2.61 м²*</text></g><path d="M4840 1500L5800 1500" stroke="#6e8770" stroke-width="11"/><text x="5320" y="1445" font-size="92" text-anchor="middle" fill="#395a3c">960</text><path d="M2325 4700L3175 4700" stroke="#6e8770" stroke-width="11"/><text x="2750" y="4645" font-size="92" text-anchor="middle" fill="#395a3c">850</text><path d="M3500 3580L4350 3580" stroke="#6e8770" stroke-width="11"/><text x="3925" y="3525" font-size="92" text-anchor="middle" fill="#395a3c">850</text><path d="M3090 1980L3940 1980" stroke="#6e8770" stroke-width="11"/><text x="3515" y="1925" font-size="92" text-anchor="middle" fill="#395a3c">850</text><path d="M0 6400L1075 6400" stroke="#6e8770" stroke-width="11"/><text x="537.5" y="6345" font-size="92" text-anchor="middle" fill="#395a3c">1075</text><path d="M1700 7700L1700 8300" stroke="#6e8770" stroke-width="11"/><text x="1700" y="7945" font-size="92" text-anchor="middle" fill="#395a3c">600</text><path d="M3295 5500L4300 5500" stroke="#6e8770" stroke-width="11"/><text x="3797.5" y="5445" font-size="92" text-anchor="middle" fill="#395a3c">1005</text><path d="M2100 2040L2100 3054" stroke="#6e8770" stroke-width="11"/><text x="2100" y="2492" font-size="92" text-anchor="middle" fill="#395a3c">1014</text><path d="M3060 1420L3970 1420" stroke="#6e8770" stroke-width="11"/><text x="3515" y="1365" font-size="92" text-anchor="middle" fill="#395a3c">910</text><path d="M2760 400L2760 1170" stroke="#6e8770" stroke-width="11"/><text x="2760" y="730" font-size="92" text-anchor="middle" fill="#395a3c">770</text><path d="M2810 1420L2810 1920" stroke="#6e8770" stroke-width="11"/><text x="2810" y="1615" font-size="92" text-anchor="middle" fill="#395a3c">500</text><path d="M1550 2250L2320 2250" stroke="#6e8770" stroke-width="11"/><text x="1935" y="2195" font-size="92" text-anchor="middle" fill="#395a3c">770</text><path d="M4960 4235L5800 4235" stroke="#6e8770" stroke-width="11"/><text x="5380" y="4180" font-size="92" text-anchor="middle" fill="#395a3c">840</text><path d="M4660 3060L5510 3060" stroke="#6e8770" stroke-width="11"/><text x="5085" y="3005" font-size="92" text-anchor="middle" fill="#395a3c">850</text><path d="M5300 2040L5300 3000" stroke="#6e8770" stroke-width="11"/><text x="5300" y="2465" font-size="92" text-anchor="middle" fill="#395a3c">960</text><path d="M4660 3500L5800 3500" stroke="#6e8770" stroke-width="11"/><text x="5230" y="3445" font-size="92" text-anchor="middle" fill="#395a3c">1140</text><text x="3200" y="-80" font-size="100" text-anchor="middle">6400 мм · внутренняя ширина</text><text x="6800" y="-80" font-size="110" >МЕБЕЛЬ / ГАБАРИТЫ</text><text x="6800" y="380" font-size="85" >1. Кровать</text><text x="6800" y="480" font-size="76" >1700 × 2100 × 850 мм</text><text x="6800" y="645" font-size="85" >2. Шкаф 1800 × 600</text><text x="6800" y="745" font-size="76" >1800 × 600 × 2400 мм</text><text x="6800" y="910" font-size="85" >3. Встроенная консоль / туалетный столик</text><text x="6800" y="1010" font-size="76" >420 × 900 × 760 мм</text><text x="6800" y="1175" font-size="85" >4. Прикроватная тумба 450</text><text x="6800" y="1275" font-size="76" >450 × 330 × 450 мм</text><text x="6800" y="1440" font-size="85" >5. Прикроватная тумба 450</text><text x="6800" y="1540" font-size="76" >450 × 350 × 450 мм</text><text x="6800" y="1705" font-size="85" >6. Кровать</text><text x="6800" y="1805" font-size="76" >1000 × 2100 × 850 мм</text><text x="6800" y="1970" font-size="85" >7. Стол 1000 × 600</text><text x="6800" y="2070" font-size="76" >600 × 1000 × 740 мм</text><text x="6800" y="2235" font-size="85" >8. Рабочий стул</text><text x="6800" y="2335" font-size="76" >500 × 500 × 850 мм</text><text x="6800" y="2500" font-size="85" >9. Вторая комната</text><text x="6800" y="2600" font-size="76" >1200 × 600 × 2400 мм</text><text x="6800" y="2765" font-size="85" >10. Ванна 1700 × 750</text><text x="6800" y="2865" font-size="76" >750 × 1700 × 560 мм</text><text x="6800" y="3030" font-size="85" >11. Подвесной унитаз</text><text x="6800" y="3130" font-size="76" >600 × 500 × 1100 мм</text><text x="6800" y="3295" font-size="85" >12. Стиральная машина 650 × 650</text><text x="6800" y="3395" font-size="76" >650 × 650 × 900 мм</text><text x="6800" y="3560" font-size="85" >13. Неглубокая тумба с раковиной 600 × 400</text><text x="6800" y="3660" font-size="76" >600 × 400 × 850 мм</text><text x="6800" y="3825" font-size="85" >14. Холодильник</text><text x="6800" y="3925" font-size="76" >650 × 650 × 2100 мм</text><text x="6800" y="4090" font-size="85" >15. Угловой модуль 600</text><text x="6800" y="4190" font-size="76" >600 × 600 × 900 мм</text><text x="6800" y="4355" font-size="85" >16. Варочная + духовка</text><text x="6800" y="4455" font-size="76" >600 × 600 × 900 мм</text><text x="6800" y="4620" font-size="85" >17. Рабочая поверхность 470</text><text x="6800" y="4720" font-size="76" >470 × 600 × 900 мм</text><text x="6800" y="4885" font-size="85" >18. Мойка</text><text x="6800" y="4985" font-size="76" >600 × 600 × 900 мм</text><text x="6800" y="5150" font-size="85" >19. ПММ</text><text x="6800" y="5250" font-size="76" >600 × 600 × 900 мм</text><text x="6800" y="5415" font-size="85" >20. Стол-полуостров 1100 × 650</text><text x="6800" y="5515" font-size="76" >1100 × 650 × 760 мм</text><text x="6800" y="5680" font-size="85" >21. Обеденный стул</text><text x="6800" y="5780" font-size="76" >400 × 400 × 820 мм</text><text x="6800" y="5945" font-size="85" >22. Обеденный стул</text><text x="6800" y="6045" font-size="76" >400 × 400 × 820 мм</text><text x="6800" y="6210" font-size="85" >23. Диван 1500 × 800</text><text x="6800" y="6310" font-size="76" >1500 × 800 × 820 мм</text><text x="6800" y="6475" font-size="85" >24. Подвесная ТВ-консоль</text><text x="6800" y="6575" font-size="76" >250 × 950 × 430 мм</text><text x="6800" y="6740" font-size="85" >25. ТВ</text><text x="6800" y="6840" font-size="76" >45 × 900 × 640 мм</text><text x="6800" y="7005" font-size="85" >26. Прихожая</text><text x="6800" y="7105" font-size="76" >600 × 1600 × 2400 мм</text><text x="6800" y="7270" font-size="85" >27. Открытое хранение</text><text x="6800" y="7370" font-size="76" >600 × 1500 × 2400 мм</text><text x="6800" y="7535" font-size="85" >28. Неглубокий ряд</text><text x="6800" y="7635" font-size="76" >300 × 770 × 1200 мм</text><text x="-300" y="8980" font-size="104" >* Площади по условной модели. Окна, высоты и вертикальные цепочки требуют обмера.</text><text x="-300" y="9180" font-size="98" >Проёмы указаны до коробок. Исходная ширина спальни 3175 мм, а не 3474 мм со скриншота.</text><text x="-300" y="9380" font-size="95" >Квартира показана в масштабе координат; лист без установленного печатного масштаба.</text></svg>