<svg xmlns="http://www.w3.org/2000/svg" width="1440" height="1560" viewBox="-800 -800 9600 10400"><style>text{font-family:Arial,sans-serif;fill:#454a3c}</style><rect x="-800" y="-800" width="9600" height="10400" fill="#faf7f0"/><text x="-300" y="-350" font-size="220" >ЛИЗА / ВАША ПЛАНИРОВКА</text><text x="4600" y="-350" font-size="100" >M · ПРОЕКТНЫЕ РАЗМЕРЫ</text><path d="M0 0L6400 0L6400 7440L3425 7440L3425 6850L3175 6850L3175 8300L0 8300Z" fill="#ede2d1"/><polygon points="0,3900 3175,3900 3175,8300 0,8300" fill="#eee2d1"/><polygon points="3295,4450 6400,4450 6400,7440 3425,7440 3425,6850 3295,6850" fill="#e7e8d9"/><polygon points="2440,0 4940,0 4940,1810 2440,1810" fill="#dfe1d8"/><polygon points="4340,2980 6400,2980 6400,4330 4340,4330" fill="#eee2d1"/><rect x="-200" y="-200" width="6800" height="200" fill="#555c50" stroke="#7b766b" stroke-width="9" /><rect x="-200" y="0" width="200" height="8550" fill="#555c50" stroke="#7b766b" stroke-width="9" /><rect x="6400" y="-200" width="200" height="300" fill="#555c50" stroke="#7b766b" stroke-width="9" /><rect x="6400" y="1100" width="200" height="6540" fill="#555c50" stroke="#7b766b" stroke-width="9" /><rect x="0" y="8300" width="260" height="250" fill="#555c50" stroke="#7b766b" stroke-width="9" /><rect x="260" y="8300" width="2915" height="250" fill="#555c50" stroke="#7b766b" stroke-width="9" /><rect x="3175" y="6850" width="250" height="1700" fill="#555c50" stroke="#7b766b" stroke-width="9" /><rect x="3425" y="7440" width="520" height="250" fill="#555c50" stroke="#7b766b" stroke-width="9" /><rect x="5628" y="7440" width="772" height="250" fill="#555c50" stroke="#7b766b" stroke-width="9" /><rect x="3945" y="7440" width="1683" height="250" fill="#555c50" stroke="#7b766b" stroke-width="9" /><rect x="2320" y="0" width="120" height="1810" fill="#8c9681" stroke="#7b766b" stroke-width="9" /><rect x="4940" y="0" width="120" height="1810" fill="#8c9681" stroke="#7b766b" stroke-width="9" /><rect x="2320" y="1810" width="770" height="120" fill="#8c9681" stroke="#7b766b" stroke-width="9" /><rect x="3940" y="1810" width="1120" height="120" fill="#8c9681" stroke="#7b766b" stroke-width="9" /><rect x="0" y="3780" width="2325" height="120" fill="#8c9681" stroke="#7b766b" stroke-width="9" /><rect x="3175" y="3780" width="120" height="3070" fill="#8c9681" stroke="#7b766b" stroke-width="9" /><rect x="4220" y="4330" width="120" height="120" fill="#8c9681" stroke="#7b766b" stroke-width="9" /><rect x="3295" y="4330" width="75" height="120" fill="#8c9681" stroke="#7b766b" stroke-width="9" /><rect x="4220" y="2980" width="120" height="1350" fill="#8c9681" stroke="#7b766b" stroke-width="9" /><rect x="5190" y="2860" width="1210" height="120" fill="#8c9681" stroke="#7b766b" stroke-width="9" /><rect x="4340" y="4330" width="2060" height="120" fill="#8c9681" stroke="#7b766b" stroke-width="9" /><path d="M260 8400h2915m-2915 35h2915" fill="none" stroke="#7298a0" stroke-width="20"/><path d="M3945 7540h1683m-1683 35h1683" fill="none" stroke="#7298a0" stroke-width="20"/><rect x="1080" y="5290" width="1850" height="2200" fill="#faf5ec" stroke="#7b766b" stroke-width="9" transform="rotate(90 2005 6390)" /><g transform="rotate(90 2005 6390)"><rect x="1140" y="5410" width="1730" height="330" rx="50" fill="#d3c3ad"/><path d="M1150 6240h1710" stroke="#b6a991" stroke-width="20"/></g><circle cx="2005" cy="6390" r="77" fill="#faf9f1" stroke="#a2aa95" stroke-width="8"/><text x="2005" y="6419" font-size="82" text-anchor="middle">1</text><rect x="0" y="4060" width="2200" height="550" fill="#b9bba4" stroke="#7b766b" stroke-width="9" /><circle cx="1100" cy="4335" r="77" fill="#faf9f1" stroke="#a2aa95" stroke-width="8"/><text x="1100" y="4364" font-size="82" text-anchor="middle">2</text><rect x="4750" y="4490" width="1300" height="1900" fill="#faf5ec" stroke="#7b766b" stroke-width="9" transform="rotate(90 5400 5440)" /><g transform="rotate(90 5400 5440)"><rect x="4810" y="4610" width="1180" height="330" rx="50" fill="#d3c3ad"/><path d="M4820 5440h1160" stroke="#b6a991" stroke-width="20"/></g><circle cx="5400" cy="5440" r="77" fill="#faf9f1" stroke="#a2aa95" stroke-width="8"/><text x="5400" y="5469" font-size="82" text-anchor="middle">3</text><rect x="3650" y="6940" width="2200" height="500" fill="#b9bba4" stroke="#7b766b" stroke-width="9" /><circle cx="4750" cy="7190" r="77" fill="#faf9f1" stroke="#a2aa95" stroke-width="8"/><text x="4750" y="7219" font-size="82" text-anchor="middle">4</text><rect x="5400" y="6330" width="500" height="500" fill="#faf5ec" stroke="#7b766b" stroke-width="9" rx="45"/><circle cx="5650" cy="6580" r="77" fill="#faf9f1" stroke="#a2aa95" stroke-width="8"/><text x="5650" y="6609" font-size="82" text-anchor="middle">5</text><rect x="4160" y="55" width="750" height="1700" fill="#fff" stroke="#7b766b" stroke-width="9" /><rect x="4240" y="145" width="590" height="1520" rx="180" fill="#dfe6e2"/><circle cx="4535" cy="905" r="77" fill="#faf9f1" stroke="#a2aa95" stroke-width="8"/><text x="4535" y="934" font-size="82" text-anchor="middle">6</text><rect x="2580" y="1170" width="600" height="500" fill="#fff" stroke="#7b766b" stroke-width="9" /><circle cx="2880" cy="1420" r="77" fill="#faf9f1" stroke="#a2aa95" stroke-width="8"/><text x="2880" y="1449" font-size="82" text-anchor="middle">7</text><rect x="3100" y="0" width="650" height="650" fill="#fff" stroke="#7b766b" stroke-width="9" /><circle cx="3425" cy="325" r="77" fill="#faf9f1" stroke="#a2aa95" stroke-width="8"/><text x="3425" y="354" font-size="82" text-anchor="middle">8</text><rect x="2460" y="0" width="600" height="400" fill="#fff" stroke="#7b766b" stroke-width="9" /><circle cx="2760" cy="200" r="77" fill="#faf9f1" stroke="#a2aa95" stroke-width="8"/><text x="2760" y="229" font-size="82" text-anchor="middle">9</text><rect x="1670" y="0" width="650" height="650" fill="#b9bba4" stroke="#7b766b" stroke-width="9" /><circle cx="1995" cy="325" r="77" fill="#faf9f1" stroke="#a2aa95" stroke-width="8"/><text x="1995" y="354" font-size="82" text-anchor="middle">10</text><rect x="0" y="0" width="600" height="600" fill="#b9bba4" stroke="#7b766b" stroke-width="9" /><circle cx="300" cy="300" r="77" fill="#faf9f1" stroke="#a2aa95" stroke-width="8"/><text x="300" y="329" font-size="82" text-anchor="middle">11</text><rect x="600" y="0" width="600" height="600" fill="#b9bba4" stroke="#7b766b" stroke-width="9" /><circle cx="770" cy="170" r="85" fill="#6a7164"/><circle cx="1030" cy="430" r="85" fill="#6a7164"/><circle cx="900" cy="300" r="77" fill="#faf9f1" stroke="#a2aa95" stroke-width="8"/><text x="900" y="329" font-size="82" text-anchor="middle">12</text><rect x="1200" y="0" width="470" height="600" fill="#b9bba4" stroke="#7b766b" stroke-width="9" /><circle cx="1435" cy="300" r="77" fill="#faf9f1" stroke="#a2aa95" stroke-width="8"/><text x="1435" y="329" font-size="82" text-anchor="middle">13</text><rect x="0" y="600" width="600" height="600" fill="#b9bba4" stroke="#7b766b" stroke-width="9" /><circle cx="300" cy="900" r="77" fill="#faf9f1" stroke="#a2aa95" stroke-width="8"/><text x="300" y="929" font-size="82" text-anchor="middle">14</text><rect x="0" y="1200" width="600" height="600" fill="#b9bba4" stroke="#7b766b" stroke-width="9" /><circle cx="300" cy="1500" r="77" fill="#faf9f1" stroke="#a2aa95" stroke-width="8"/><text x="300" y="1529" font-size="82" text-anchor="middle">15</text><rect x="0" y="1950" width="1100" height="650" fill="#b9bba4" stroke="#7b766b" stroke-width="9" rx="45"/><circle cx="550" cy="2275" r="77" fill="#faf9f1" stroke="#a2aa95" stroke-width="8"/><text x="550" y="2304" font-size="82" text-anchor="middle">16</text><rect x="1150" y="1950" width="400" height="400" fill="#faf5ec" stroke="#7b766b" stroke-width="9" rx="45"/><circle cx="1350" cy="2150" r="77" fill="#faf9f1" stroke="#a2aa95" stroke-width="8"/><text x="1350" y="2179" font-size="82" text-anchor="middle">17</text><rect x="1150" y="2380" width="400" height="400" fill="#faf5ec" stroke="#7b766b" stroke-width="9" rx="45"/><circle cx="1350" cy="2580" r="77" fill="#faf9f1" stroke="#a2aa95" stroke-width="8"/><text x="1350" y="2609" font-size="82" text-anchor="middle">18</text><rect x="150" y="2850" width="2400" height="850" fill="#faf5ec" stroke="#7b766b" stroke-width="9" rx="45"/><g><rect x="230" y="3530" width="2240" height="120" rx="40" fill="#c9b69d"/></g><circle cx="1350" cy="3275" r="77" fill="#faf9f1" stroke="#a2aa95" stroke-width="8"/><text x="1350" y="3304" font-size="82" text-anchor="middle">19</text><rect x="6060" y="1400" width="340" height="700" fill="#b9bba4" stroke="#7b766b" stroke-width="9" /><circle cx="6230" cy="1750" r="77" fill="#faf9f1" stroke="#a2aa95" stroke-width="8"/><text x="6230" y="1779" font-size="82" text-anchor="middle">20</text><rect x="5800" y="3000" width="600" height="1000" fill="#b9bba4" stroke="#7b766b" stroke-width="9" /><circle cx="6100" cy="3500" r="77" fill="#faf9f1" stroke="#a2aa95" stroke-width="8"/><text x="6100" y="3529" font-size="82" text-anchor="middle">21</text><rect x="4360" y="3490" width="450" height="450" fill="#b9bba4" stroke="#7b766b" stroke-width="9" /><circle cx="4585" cy="3715" r="77" fill="#faf9f1" stroke="#a2aa95" stroke-width="8"/><text x="4585" y="3744" font-size="82" text-anchor="middle">22</text><rect x="6400" y="100" width="1000" height="45" fill="#bea27b" stroke="#7b766b" stroke-width="9" /><rect x="3135" y="3900" width="40" height="850" fill="#bea27b" stroke="#7b766b" stroke-width="9" /><path d="M2325 3900A850 850 0 0 0 3175 4750" stroke="#a38d66" stroke-dasharray="30 25" stroke-width="10" fill="none"/><rect x="4180" y="4450" width="40" height="850" fill="#bea27b" stroke="#7b766b" stroke-width="9" /><path d="M3370 4450A850 850 0 0 0 4220 5300" stroke="#a38d66" stroke-dasharray="30 25" stroke-width="10" fill="none"/><rect x="3940" y="1850" width="850" height="35" fill="#bea27b" stroke="#7b766b" stroke-width="9" /><rect x="5190" y="2900" width="850" height="35" fill="#bea27b" stroke="#7b766b" stroke-width="9" /><g><text x="1590" y="6090" font-size="100" text-anchor="middle" fill="#343d31">Спальня · 13.97 м²*</text></g><g><text x="5200" y="5700" font-size="100" text-anchor="middle" fill="#343d31">Вторая спальня · 9.21 м²*</text><text x="5200" y="5835" font-size="75" text-anchor="middle">На фото: 8.94 м²</text></g><g><text x="3690" y="1100" font-size="100" text-anchor="middle" fill="#343d31">Ванная · 4.53 м²*</text></g><g><text x="1350" y="2850" font-size="100" text-anchor="middle" fill="#343d31">Кухня-гостиная</text></g><g><text x="5550" y="1450" font-size="100" text-anchor="middle" fill="#343d31">Прихожая</text></g><g><text x="5450" y="3520" font-size="100" text-anchor="middle" fill="#343d31">Гардеробная · 2.78 м²*</text></g><path d="M5060 1750L6060 1750" stroke="#6e8770" stroke-width="11"/><text x="5560" y="1695" font-size="92" text-anchor="middle" fill="#395a3c">1000</text><path d="M6075 100L6075 1100" stroke="#6e8770" stroke-width="11"/><text x="6075" y="545" font-size="92" text-anchor="middle" fill="#395a3c">1000</text><path d="M3090 1870L3940 1870" stroke="#6e8770" stroke-width="11"/><text x="3515" y="1815" font-size="92" text-anchor="middle" fill="#395a3c">850</text><path d="M2325 3840L3175 3840" stroke="#6e8770" stroke-width="11"/><text x="2750" y="3785" font-size="92" text-anchor="middle" fill="#395a3c">850</text><path d="M3370 4160L4220 4160" stroke="#6e8770" stroke-width="11"/><text x="3795" y="4105" font-size="92" text-anchor="middle" fill="#395a3c">850</text><path d="M4340 2780L5190 2780" stroke="#6e8770" stroke-width="11"/><text x="4765" y="2725" font-size="92" text-anchor="middle" fill="#395a3c">850</text><path d="M4700 1930L4700 2860" stroke="#6e8770" stroke-width="11"/><text x="4700" y="2340" font-size="92" text-anchor="middle" fill="#395a3c">930</text><path d="M0 6200L905 6200" stroke="#6e8770" stroke-width="11"/><text x="452.5" y="6145" font-size="92" text-anchor="middle" fill="#395a3c">905</text><path d="M1500 4610L1500 5465" stroke="#6e8770" stroke-width="11"/><text x="1500" y="4982.5" font-size="92" text-anchor="middle" fill="#395a3c">855</text><path d="M1600 7315L1600 8300" stroke="#6e8770" stroke-width="11"/><text x="1600" y="7752.5" font-size="92" text-anchor="middle" fill="#395a3c">985</text><path d="M4890 3500L5880 3500" stroke="#6e8770" stroke-width="11"/><text x="5385" y="3445" font-size="92" text-anchor="middle" fill="#395a3c">990</text><text x="3200" y="-80" font-size="100" text-anchor="middle">6400 мм · внутренняя ширина</text><text x="6800" y="-80" font-size="110" >МЕБЕЛЬ / ГАБАРИТЫ</text><text x="6800" y="380" font-size="85" >1. Двуспальная кровать</text><text x="6800" y="480" font-size="76" >1850 × 2200 × 850 мм</text><text x="6800" y="645" font-size="85" >2. Шкаф / хранение 2200 × 550</text><text x="6800" y="745" font-size="76" >2200 × 550 × 2400 мм</text><text x="6800" y="910" font-size="85" >3. Односпальная / диван-кровать</text><text x="6800" y="1010" font-size="76" >1300 × 1900 × 850 мм</text><text x="6800" y="1175" font-size="85" >4. Стол / консоль 2200 × 500</text><text x="6800" y="1275" font-size="76" >2200 × 500 × 740 мм</text><text x="6800" y="1440" font-size="85" >5. Рабочий стул</text><text x="6800" y="1540" font-size="76" >500 × 500 × 850 мм</text><text x="6800" y="1705" font-size="85" >6. Ванна 1700 × 750</text><text x="6800" y="1805" font-size="76" >750 × 1700 × 560 мм</text><text x="6800" y="1970" font-size="85" >7. Подвесной унитаз</text><text x="6800" y="2070" font-size="76" >600 × 500 × 1100 мм</text><text x="6800" y="2235" font-size="85" >8. Стиральная машина 650 × 650</text><text x="6800" y="2335" font-size="76" >650 × 650 × 900 мм</text><text x="6800" y="2500" font-size="85" >9. Неглубокая тумба с раковиной 600 × 400</text><text x="6800" y="2600" font-size="76" >600 × 400 × 850 мм</text><text x="6800" y="2765" font-size="85" >10. Холодильник</text><text x="6800" y="2865" font-size="76" >650 × 650 × 2100 мм</text><text x="6800" y="3030" font-size="85" >11. Угловой модуль 600</text><text x="6800" y="3130" font-size="76" >600 × 600 × 900 мм</text><text x="6800" y="3295" font-size="85" >12. Варочная + духовка</text><text x="6800" y="3395" font-size="76" >600 × 600 × 900 мм</text><text x="6800" y="3560" font-size="85" >13. Рабочая поверхность 470</text><text x="6800" y="3660" font-size="76" >470 × 600 × 900 мм</text><text x="6800" y="3825" font-size="85" >14. Мойка</text><text x="6800" y="3925" font-size="76" >600 × 600 × 900 мм</text><text x="6800" y="4090" font-size="85" >15. ПММ</text><text x="6800" y="4190" font-size="76" >600 × 600 × 900 мм</text><text x="6800" y="4355" font-size="85" >16. Стол-полуостров 1100 × 650</text><text x="6800" y="4455" font-size="76" >1100 × 650 × 760 мм</text><text x="6800" y="4620" font-size="85" >17. Обеденный стул</text><text x="6800" y="4720" font-size="76" >400 × 400 × 820 мм</text><text x="6800" y="4885" font-size="85" >18. Обеденный стул</text><text x="6800" y="4985" font-size="76" >400 × 400 × 820 мм</text><text x="6800" y="5150" font-size="85" >19. Диван 2400 × 850</text><text x="6800" y="5250" font-size="76" >2400 × 850 × 820 мм</text><text x="6800" y="5415" font-size="85" >20. Прихожая</text><text x="6800" y="5515" font-size="76" >340 × 700 × 900 мм</text><text x="6800" y="5680" font-size="85" >21. Гардеробная</text><text x="6800" y="5780" font-size="76" >600 × 1000 × 2400 мм</text><text x="6800" y="5945" font-size="85" >22. Гардеробная</text><text x="6800" y="6045" font-size="76" >450 × 450 × 1800 мм</text><text x="-300" y="8980" font-size="104" >* План по фотографии — модельные площади, фото не является обмером.</text><text x="-300" y="9180" font-size="98" >Проёмы до коробок, размеры предварительные. Нужна проверка по обмерам.</text><text x="-300" y="9380" font-size="95" >Квартира показана в масштабе координат; лист без установленного печатного масштаба.</text></svg>