<svg xmlns="http://www.w3.org/2000/svg" viewBox="-340 -420 7080 9200" role="img" aria-label="Планировка W1, гардеробная 2,61 квадратных метра"><style>text{font-family:Arial,sans-serif;fill:#323b34}.room{font-size:145px;font-weight:700;paint-order:stroke;stroke:#f3f0e9;stroke-width:30}.size{font-size:112px;paint-order:stroke;stroke:#f3f0e9;stroke-width:23}.object{font-size:91px;fill:#fff;paint-order:stroke;stroke:#3e4038;stroke-width:7}.meta{font-size:115px;letter-spacing:16px;fill:#887764}</style><rect x="-340" y="-420" width="7080" height="9200" fill="#f4f0e7"/><polygon points="0,0 6400,0 6400,7440 3425,7440 3425,6850 3175,6850 3175,8300 0,8300" fill="#f8f5ee"/><polygon points="0,4760 3175,4760 3175,8300 0,8300" fill="#e5dfd0" stroke="#eee8dc" stroke-width="18"/><polygon points="3295,4660 3547,3640 4540,3640 4540,4740 6400,4740 6400,7440 3425,7440 3425,6850 3295,6850" fill="#eeeadf" stroke="#eee8dc" stroke-width="18"/><polygon points="2440,0 4720,0 4720,1920 2440,1920" fill="#d8ded7" stroke="#eee8dc" stroke-width="18"/><polygon points="4660,3120 6400,3120 6400,4620 4660,4620" fill="#c8b89e" stroke="#eee8dc" stroke-width="18"/><g transform="rotate(90 2125 6850)"><rect x="1275" y="5800" width="1700" height="2100" rx="65" fill="#b4a999" stroke="#f4efe5" stroke-width="18"/></g><text x="2125" y="6877" text-anchor="middle" class="object">160 × 200</text><g transform="rotate(0 900 5060)"><rect x="0" y="4760" width="1800" height="600" rx="65" fill="#b69c7d" stroke="#f4efe5" stroke-width="18"/></g><text x="900" y="5087" text-anchor="middle" class="object">шкаф</text><g transform="rotate(0 210 7260)"><rect x="0" y="6810" width="420" height="900" rx="52.5" fill="#b69c7d" stroke="#f4efe5" stroke-width="18"/></g><g transform="rotate(0 2950 5815)"><rect x="2725" y="5650" width="450" height="330" rx="41.25" fill="#b69c7d" stroke="#f4efe5" stroke-width="18"/></g><g transform="rotate(0 2950 7975)"><rect x="2725" y="7800" width="450" height="350" rx="43.75" fill="#b69c7d" stroke="#f4efe5" stroke-width="18"/></g><g transform="rotate(90 5350 5250)"><rect x="4850" y="4200" width="1000" height="2100" rx="65" fill="#b4a999" stroke="#f4efe5" stroke-width="18"/></g><text x="5350" y="5277" text-anchor="middle" class="object">90 × 200</text><g transform="rotate(0 3725 6800)"><rect x="3425" y="6300" width="600" height="1000" rx="65" fill="#b69c7d" stroke="#f4efe5" stroke-width="18"/></g><text x="3725" y="6827" text-anchor="middle" class="object">стол</text><g transform="rotate(0 4400 6825)"><rect x="4150" y="6575" width="500" height="500" rx="62.5" fill="#a99980" stroke="#f4efe5" stroke-width="18"/></g><g transform="rotate(90 6100 6840)"><rect x="5500" y="6540" width="1200" height="600" rx="65" fill="#b69c7d" stroke="#f4efe5" stroke-width="18"/></g><text x="6100" y="6867" text-anchor="middle" class="object">шкаф</text><g transform="rotate(0 4345 960)"><rect x="3970" y="110" width="750" height="1700" rx="65" fill="#a3aaa3" stroke="#f4efe5" stroke-width="18"/></g><g transform="rotate(0 2760 1420)"><rect x="2460" y="1170" width="600" height="500" rx="62.5" fill="#a3aaa3" stroke="#f4efe5" stroke-width="18"/></g><g transform="rotate(0 3425 325)"><rect x="3100" y="0" width="650" height="650" rx="65" fill="#a3aaa3" stroke="#f4efe5" stroke-width="18"/></g><g transform="rotate(0 2760 200)"><rect x="2460" y="0" width="600" height="400" rx="50" fill="#a3aaa3" stroke="#f4efe5" stroke-width="18"/></g><g transform="rotate(0 1995 325)"><rect x="1670" y="0" width="650" height="650" rx="65" fill="#b69c7d" stroke="#f4efe5" stroke-width="18"/></g><g transform="rotate(0 300 300)"><rect x="0" y="0" width="600" height="600" rx="65" fill="#b69c7d" stroke="#f4efe5" stroke-width="18"/></g><g transform="rotate(0 900 300)"><rect x="600" y="0" width="600" height="600" rx="65" fill="#b69c7d" stroke="#f4efe5" stroke-width="18"/></g><g transform="rotate(0 1435 300)"><rect x="1200" y="0" width="470" height="600" rx="58.75" fill="#b69c7d" stroke="#f4efe5" stroke-width="18"/></g><g transform="rotate(0 300 900)"><rect x="0" y="600" width="600" height="600" rx="65" fill="#b69c7d" stroke="#f4efe5" stroke-width="18"/></g><g transform="rotate(0 300 1500)"><rect x="0" y="1200" width="600" height="600" rx="65" fill="#b69c7d" stroke="#f4efe5" stroke-width="18"/></g><g transform="rotate(0 550 2275)"><rect x="0" y="1950" width="1100" height="650" rx="65" fill="#b69c7d" stroke="#f4efe5" stroke-width="18"/></g><text x="550" y="2302" text-anchor="middle" class="object">стол</text><g transform="rotate(0 1350 2150)"><rect x="1150" y="1950" width="400" height="400" rx="50" fill="#a99980" stroke="#f4efe5" stroke-width="18"/></g><g transform="rotate(0 1350 2580)"><rect x="1150" y="2380" width="400" height="400" rx="50" fill="#a99980" stroke="#f4efe5" stroke-width="18"/></g><g transform="rotate(270 2000 3804)"><rect x="1250" y="3404" width="1500" height="800" rx="65" fill="#8d9487" stroke="#f4efe5" stroke-width="18"/></g><text x="2000" y="3831" text-anchor="middle" class="object">диван</text><g transform="rotate(0 125 3675)"><rect x="0" y="3200" width="250" height="950" rx="31.25" fill="#b69c7d" stroke="#f4efe5" stroke-width="18"/></g><g transform="rotate(0 6100 2100)"><rect x="5800" y="1300" width="600" height="1600" rx="65" fill="#b69c7d" stroke="#f4efe5" stroke-width="18"/></g><g transform="rotate(0 6100 3870)"><rect x="5800" y="3120" width="600" height="1500" rx="65" fill="#755a42" stroke="#f4efe5" stroke-width="18"/></g><text x="6100" y="3897" text-anchor="middle" class="object">штанги</text><g transform="rotate(0 4910 4445)"><rect x="4660" y="4270" width="500" height="350" rx="43.75" fill="#755a42" stroke="#f4efe5" stroke-width="18"/></g><rect x="2320" y="0" width="120" height="1920" transform="rotate(0 2380 960)" fill="#363b34"/><rect x="4720" y="0" width="120" height="1920" transform="rotate(0 4780 960)" fill="#363b34"/><rect x="2320" y="1920" width="770" height="120" transform="rotate(0 2705 1980)" fill="#363b34"/><rect x="3940" y="1920" width="900" height="120" transform="rotate(0 4390 1980)" fill="#363b34"/><rect x="0" y="4640" width="2325" height="120" transform="rotate(0 1162.5 4700)" fill="#363b34"/><rect x="3175" y="4640" width="120" height="2210" transform="rotate(0 3235 5745)" fill="#363b34"/><rect x="4350" y="3520" width="190" height="120" transform="rotate(0 4445 3580)" fill="#363b34"/><rect x="2821.18850460566" y="4050" width="1092.62299078868" height="120" transform="rotate(-75.96375653207353 3367.5 4110)" fill="#363b34"/><rect x="4540" y="3000" width="120" height="1740" transform="rotate(0 4600 3870)" fill="#363b34"/><rect x="4660" y="4620" width="1740" height="120" transform="rotate(0 5530 4680)" fill="#363b34"/><rect x="5510" y="3000" width="890" height="120" transform="rotate(0 5955 3060)" fill="#363b34"/><rect x="-200" y="-200" width="6800" height="200" fill="#3b4039"/><rect x="-200" y="0" width="200" height="8550" fill="#3b4039"/><rect x="6400" y="-200" width="200" height="300" fill="#3b4039"/><rect x="6400" y="1100" width="200" height="6540" fill="#3b4039"/><rect x="3175" y="6850" width="250" height="1700" fill="#7e5e4c"/><rect x="6400" y="100" width="200" height="1000" fill="#3b4039"/><path d="M250 8300H3150 M3950 7440H5630" stroke="#87a5aa" stroke-width="70"/><path d="M6450 100V1100" stroke="#d59b64" stroke-width="90"/><path d="M2325 4640h850 " stroke="#ba896c" stroke-width="60" stroke-dasharray="65 42"/><path d="M3500 3520h850 " stroke="#ba896c" stroke-width="60" stroke-dasharray="65 42"/><path d="M3090 1920h850 " stroke="#ba896c" stroke-width="60" stroke-dasharray="65 42"/><path d="M4660 3000h850 " stroke="#ba896c" stroke-width="60" stroke-dasharray="65 42"/><text x="1700" y="5600" text-anchor="middle" class="room">Спальня</text><text x="1700" y="5760" text-anchor="middle" class="size">11,24 м²</text><text x="5200" y="6150" text-anchor="middle" class="room">Вторая комната</text><text x="5200" y="6310" text-anchor="middle" class="size">9,55 м²</text><text x="3540" y="1650" text-anchor="middle" class="room">Ванная</text><text x="3540" y="1810" text-anchor="middle" class="size">4,38 м²</text><text x="5320" y="4070" text-anchor="middle" class="room">Гардероб</text><text x="5320" y="4230" text-anchor="middle" class="size">2,61 м²</text><text x="0" y="8650" class="meta">W1 / УСЛОВНЫЙ ПЛАН · ММ</text></svg>